<svg xmlns="http://www.w3.org/2000/svg" viewBox="2301.963 2119.91 154.905 197.428">
  <defs>
    <style>
      .cls-1 {
        fill: #f6ad28;
        stroke: #fff;
        stroke-miterlimit: 10;
        stroke-width: 2px;
      }

      .cls-2 {
        fill: #e84710;
      }

      .cls-3 {
        fill: #30368c;
      }
    </style>
  </defs>
  <g id="acelera_o_raciocínio" transform="translate(2301.963 2119.91)">
    <path id="Path_193" data-name="Path 193" class="cls-1" d="M73.239,37.038l-7.1-3.908V30.288a6.692,6.692,0,0,0-.71-2.842l5.329-5.329a1.613,1.613,0,0,0,0-1.776L64,11.1a1.586,1.586,0,0,0-1.776,0l-6.75,3.552a28.758,28.758,0,0,0-4.618-2.131l-1.776-7.1A1.3,1.3,0,0,0,47.661,4L36.294,5.421a1.528,1.528,0,0,0-1.421,1.421l-.355,7.815c-1.776.71-2.842,2.131-4.618,3.2l-7.1-2.131a1.3,1.3,0,0,0-1.776.71L16.4,27.091c-.355.355,0,1.066.71,1.776L23.5,32.775v2.842a6.692,6.692,0,0,0,.71,2.842l-5.329,5.329a1.613,1.613,0,0,0,0,1.776l6.75,9.236a1.586,1.586,0,0,0,1.776,0l6.75-3.552a12.455,12.455,0,0,0,4.973,2.131l1.776,7.1c0,.71.71,1.066,1.421,1.066L53.7,60.128a1.528,1.528,0,0,0,1.421-1.421l.355-7.46c1.421-1.066,3.2-2.131,4.618-3.2l7.46,2.131a1.3,1.3,0,0,0,1.776-.71l4.618-10.657C73.949,38.1,73.949,37.393,73.239,37.038Zm-27,5.684c-5.329.71-10.3-3.552-11.013-8.881s3.552-10.3,8.881-11.013,10.3,3.552,11.013,8.881S51.569,42.011,46.24,42.721Z" transform="translate(41.314 10.228)"/>
    <path id="Path_192" data-name="Path 192" class="cls-1" d="M36.57,31.644V30.223a1.305,1.305,0,0,0-.355-1.066L38.7,26.671c.355-.355.355-.355,0-.71l-2.842-3.908a.492.492,0,0,0-.71,0l-2.842,1.421-2.131-1.066-.71-3.2a.764.764,0,0,0-.71-.71l-4.973.71a.764.764,0,0,0-.71.71v3.552c-.71.355-1.421,1.066-2.131,1.421l-3.2-1.066c-.355,0-.71,0-.71.355L14.9,28.8a1.1,1.1,0,0,0,.355.71L18.1,31.289V32.71a1.305,1.305,0,0,0,.355,1.066l-2.487,2.487c-.355.355-.355.355,0,.71l2.842,3.908a.492.492,0,0,0,.71,0l2.842-1.421,2.131,1.066.71,3.2c0,.355.355.355.71.355l4.973-.71a.764.764,0,0,0,.71-.71v-3.2c.71-.355,1.421-1.066,2.131-1.421l3.2,1.066c.355,0,.71,0,.71-.355l2.131-4.618c0-.355,0-.71-.355-.71Zm-8.881,3.908A4.472,4.472,0,1,1,31.6,30.578,4.242,4.242,0,0,1,27.689,35.552Z" transform="translate(37.841 47.239)"/>
    <path id="Path_198" data-name="Path 198" class="cls-1" d="M13.831,13.881v1.066a1.305,1.305,0,0,0,.355,1.066L12.41,17.789v.71l2.131,2.842h.71l2.131-1.066c.355.355,1.066.355,1.776.71l.71,2.131a.348.348,0,0,0,.355.355l3.552-.355a.348.348,0,0,0,.355-.355V20.275c.355-.355,1.066-.71,1.421-1.066l2.487.71c.355,0,.355,0,.355-.355l1.421-3.2v-.355l-2.131-1.066V13.881a1.305,1.305,0,0,0-.355-1.066l1.776-1.776v-.71l-2.131-3.2h-.71L24.133,8.2c-.355-.355-1.066-.355-1.776-.71l-.71-2.131A.348.348,0,0,0,21.292,5l-3.552.355a.348.348,0,0,0-.355.355V8.2c-.355.355-1.066.71-1.421,1.066l-2.131-.71c-.355,0-.355,0-.71.355L11.7,12.1a.348.348,0,0,0,.355.355Zm6.75-3.2c1.776-.355,3.2,1.066,3.552,2.842s-1.066,3.2-2.842,3.552-3.2-1.066-3.552-2.842S18.8,11.039,20.581,10.684Z" transform="translate(29.673 12.781)"/>
    <path id="Path_194" data-name="Path 194" class="cls-1" d="M41.59,31.459l-4.618-2.487V27.2a2.662,2.662,0,0,0-.355-1.776l3.552-3.552a.666.666,0,0,0,0-1.066l-4.263-6.039c-.355,0-.71-.355-1.066,0L30.577,17.25a12.619,12.619,0,0,0-3.2-1.421L25.959,11.21c0-.71-.355-.71-.71-.71l-7.46.71a.764.764,0,0,0-.71.71v4.973c-1.066.355-1.776,1.421-2.842,2.131L9.618,17.6c-.71,0-1.066,0-1.066.355L5,25.065a1.305,1.305,0,0,0,.355,1.066l4.263,2.487v1.776a2.662,2.662,0,0,0,.355,1.776L6.421,35.722a.666.666,0,0,0,0,1.066l4.263,6.039c.355,0,.71.355,1.066,0L16.368,40.7a12.619,12.619,0,0,0,3.2,1.421l1.421,4.618c0,.355.355.71,1.066.71l7.46-.71a.764.764,0,0,0,.71-.71l.355-4.973a19.706,19.706,0,0,0,2.842-2.131l4.618,1.421c.355,0,1.066,0,1.066-.355l2.842-6.75C42.3,32.17,42.3,31.815,41.59,31.459ZM24.183,35.367a6.434,6.434,0,1,1,5.684-7.1C30.222,31.459,27.736,34.656,24.183,35.367Z" transform="translate(12.572 26.819)"/>
    <path id="Path_191" data-name="Path 191" class="cls-2" d="M154.394,101.613a50.639,50.639,0,0,0-4.618-9.947c-3.552-6.75-7.46-13.144-11.368-19.894a1.3,1.3,0,0,1-.355-1.066,105.375,105.375,0,0,0,1.066-14.92A30.448,30.448,0,0,0,136.632,43a67.378,67.378,0,0,0-27.709-32.682C94.713,1.434,78.372-1.052,60.965.369c-2.131.355-4.618.71-6.75,1.066C30.059,6.408,13.007,19.907,4.126,41.932A53.7,53.7,0,0,0,1.64,75.325a94.847,94.847,0,0,0,8.526,21.67c3.908,7.46,8.171,14.565,12.433,21.67,3.2,5.329,6.394,10.657,8.526,16.341a6.046,6.046,0,0,1,.355,2.487,47.3,47.3,0,0,1-3.552,9.947c-.71,1.066-1.421,2.487-2.131,3.552l-4.973,7.46a.348.348,0,0,1-.355.355L10.876,171.6c-1.776,2.487-.71,6.394,2.487,7.1L74.82,197.173a4.615,4.615,0,0,0,6.039-4.618c-.355-6.394,1.066-15.631,8.526-21.67,13.854-11.013,30.2-11.013,37.656-11.368h.355a37.657,37.657,0,0,0,10.657-3.552c2.842-1.776,5.329-3.908,6.394-7.46a14.749,14.749,0,0,0-2.131-12.078,1.613,1.613,0,0,1,0-1.776c.71-.71,1.066-1.776,1.776-2.487a3.453,3.453,0,0,0,.355-3.2c-.355-.355,0-.71.355-1.066l2.131-2.131A5.1,5.1,0,0,0,148,120.8c-.71-2.131-1.421-3.908-2.131-6.039-.355-.71-.355-.71.355-1.066a14.819,14.819,0,0,0,5.684-3.2C154.394,108.362,155.815,105.52,154.394,101.613ZM64.873,25.946l4.263,1.066a6.165,6.165,0,0,0,4.973-1.066h0a5.064,5.064,0,0,0,2.131-4.263V16.71c0-.71.71-1.066,1.421-1.421l11.368-1.066a1.3,1.3,0,0,1,1.421,1.421l1.066,4.618a4.633,4.633,0,0,0,3.2,3.552.348.348,0,0,1,.355.355,4.368,4.368,0,0,0,4.618-.355,46.041,46.041,0,0,0,4.263-2.487c.71-.355,1.421,0,1.776,0l6.75,9.236a1.586,1.586,0,0,1,0,1.776l-5.329,5.329c.355.71.355,1.776.71,2.842v2.842l7.1,3.908c.71.355.71,1.066.355,1.776L110.7,59.694a1.3,1.3,0,0,1-1.776.71L104.3,58.984a7.1,7.1,0,0,0-4.618.71l-.355.355A5.064,5.064,0,0,0,97.2,64.312l-.355,4.618c0,.71-.71,1.066-1.421,1.421L84.056,71.772c-.71,0-1.421-.355-1.421-1.066l-1.066-4.618a4.633,4.633,0,0,0-3.2-3.552.348.348,0,0,1-.355-.355,4.368,4.368,0,0,0-4.618.355,42.664,42.664,0,0,1-4.263,2.131c-.71.355-1.421,0-1.776,0l-6.75-9.236a1.586,1.586,0,0,1,0-1.776l5.329-5.329c-.355-.71-.355-1.776-.71-2.842V42.642l-6.394-3.908c-.71-.355-1.066-1.421-.71-1.776L62.741,26.3A2.181,2.181,0,0,1,64.873,25.946ZM55.992,79.588V78.167L53.15,76.746a1.1,1.1,0,0,1-.355-.71l2.131-4.618c.355-.355.355-.355.71-.355l3.2,1.066a7.432,7.432,0,0,1,2.131-1.421V67.154a.764.764,0,0,1,.71-.71l4.973-.71a.764.764,0,0,1,.71.71l.71,3.2L70.2,70.707l2.842-1.421h.71L76.6,73.193c0,.355.355.355,0,.71L74.109,76.39c0,.355.355.71.355,1.066v1.421l3.2,1.776c.355,0,.355.355.355.71l-1.776,4.618a.681.681,0,0,1-1.066.355l-3.2-1.066a7.431,7.431,0,0,1-2.131,1.421v3.2a.764.764,0,0,1-.71.71l-4.973.71a1.24,1.24,0,0,1-.71-.355l-.71-3.2L60.61,86.692l-2.842,1.421h-.71l-2.842-3.908c0-.355-.355-.355,0-.71L56.7,81.009A1.418,1.418,0,0,1,55.992,79.588Zm-13.144-57.9c.355-.355.355-.355.71-.355l2.131.71c.355-.355,1.066-.71,1.421-1.066V18.486a.348.348,0,0,1,.355-.355l3.552-.355c.355,0,.355,0,.355.355l.71,2.131c.71.355,1.066.355,1.776.71l2.131-1.066h.71l2.131,2.842v.71l-1.776,1.776c0,.355,0,.355.355,1.066s0,.71,0,1.066l2.131,1.066c.355,0,.355.355,0,.355l-1.421,3.2a.348.348,0,0,1-.355.355l-2.487-.71c-.355.355-1.066.71-1.421,1.066v2.487a.348.348,0,0,1-.355.355l-3.552.355c-.355,0-.355,0-.355-.355l-.71-2.131c-.71-.355-1.066-.355-1.776-.71l-2.131,1.066h-.71l-2.131-2.842v-.71l1.776-1.776c0-.355,0-.355-.355-1.066V26.3l-2.131-1.066a.348.348,0,0,1-.355-.355ZM30.414,68.22a4.929,4.929,0,0,0-3.2,0L24.73,69.641c-.355.355-1.066,0-1.066,0L19.4,63.6a.666.666,0,0,1,0-1.066l3.552-3.552a2.662,2.662,0,0,1-.355-1.776V55.431l-4.263-2.487a1.262,1.262,0,0,1-.71-1.066l2.842-6.75c.355-.355.71-.71,1.066-.355l3.2.355a3.407,3.407,0,0,0,3.2-.71h0a4.385,4.385,0,0,0,1.421-2.842v-3.2a.764.764,0,0,1,.71-.71l7.46-.71c.355,0,1.066.355.71.71l.71,2.842A4.776,4.776,0,0,0,41.072,43h.355a4.929,4.929,0,0,0,3.2,0l2.842-1.421c.355-.355,1.066,0,1.066,0l4.263,6.039a.666.666,0,0,1,0,1.066l-3.552,3.552A2.662,2.662,0,0,1,49.6,54.01v1.776l4.618,2.487c.355,0,.355.71.355,1.066l-2.842,6.75a.681.681,0,0,1-1.066.355l-2.842-.71a2.763,2.763,0,0,0-2.842.71.348.348,0,0,0-.355.355A4.385,4.385,0,0,0,43.2,69.641v3.2a.764.764,0,0,1-.71.71l-7.46.71c-.71,0-1.066-.355-1.066-.71l-.71-2.842a4.929,4.929,0,0,0-2.842-2.487Z" transform="translate(-0.054 0.005)"/>
    <path id="Path_199" data-name="Path 199" class="cls-3" d="M16.952,12.994a3.459,3.459,0,0,0,2.842-3.552A3.459,3.459,0,0,0,16.242,6.6,3.459,3.459,0,0,0,13.4,10.152,3.007,3.007,0,0,0,16.952,12.994Z" transform="translate(34.012 16.865)"/>
    <path id="Path_195" data-name="Path 195" class="cls-3" d="M21.14,20.933a4.472,4.472,0,1,0,4.973,3.908A4.621,4.621,0,0,0,21.14,20.933Z" transform="translate(43.679 53.332)"/>
    <path id="Path_196" data-name="Path 196" class="cls-3" d="M14.108,13.979a6.434,6.434,0,1,0,7.1,5.684C20.858,16.11,17.661,13.268,14.108,13.979Z" transform="translate(21.226 35.419)"/>
    <path id="Path_197" data-name="Path 197" class="cls-3" d="M30.5,9.316a10.483,10.483,0,0,0-8.881,11.013c.355,5.329,5.684,9.236,11.013,8.881A10.483,10.483,0,0,0,41.51,18.2C41.154,12.869,35.826,8.961,30.5,9.316Z" transform="translate(54.926 23.74)"/>
  </g>
</svg>
