<svg xmlns="http://www.w3.org/2000/svg" viewBox="3120.259 2476 199.741 199.741">
  <defs>
    <style>
      .cls-1 {
        fill: #fcaf17;
      }

      .cls-2 {
        fill: #e84710;
      }

      .cls-3 {
        fill: #f4ac28;
      }

      .cls-4 {
        fill: #2e3192;
      }
    </style>
  </defs>
  <g id="Group_138" data-name="Group 138" transform="translate(3120.259 2476.1)">
    <path id="Path_224" data-name="Path 224" class="cls-1" d="M42.571,52.289A182.3,182.3,0,0,1,18.113,26.608l-.408-.408a.4.4,0,0,0-.408.408l-3.261,3.261c-.408.408,0,.408,0,.815a35.848,35.848,0,0,0,2.446,4.076,139.985,139.985,0,0,0,19.974,21.2,54.443,54.443,0,0,0,9.376,6.522c.815.408,1.223.408,1.631-.408l2.446-2.446a.764.764,0,0,0,0-1.223C47.055,56.365,45.017,54.327,42.571,52.289Z" transform="translate(42.625 80.908)"/>
    <path id="Path_225" data-name="Path 225" class="cls-2" d="M36.488,31.055c-.408-.815-.815-.408-1.223,0a70.971,70.971,0,0,1-4.892,5.707c-6.93,8.153-13.86,15.9-20.789,24.05-.408.408-.815.815,0,1.223.408,0,.815.408,1.223.815h0l.815.815,1.223,2.446L5.915,77.933A3.114,3.114,0,0,0,5.1,79.971a2.786,2.786,0,0,0,2.853,2.853,2.451,2.451,0,0,0,1.631-.408h0l4.484-2.853,15.9-8.968c1.631-.815,2.853-1.631,4.484-2.446,0,0,4.484-3.261,6.93-2.853l3.261,1.631s4.076,1.223,6.93-3.669c2.853-2.446,5.3-5.3,8.153-7.745a.764.764,0,0,0,0-1.223C50.755,46.953,43.01,39.616,36.488,31.055Z" transform="translate(15.689 94.396)"/>
    <path id="Path_226" data-name="Path 226" class="cls-3" d="M27.2,36.331h1.223Q28.423,35.719,27.2,36.331Z" transform="translate(83.677 111.133)"/>
    <path id="Path_227" data-name="Path 227" class="cls-1" d="M57.2,30.637c-.408-.408-.815,0-1.223,0a186.314,186.314,0,0,1-25.273,15.9c-.408.408-.408.408-.408,1.223v7.337L31.523,71.4,57.612,39.2c.815-1.223,2.038-2.446,2.853-3.669.815-.815.408-1.631-.408-2.853C59.242,32.267,58.427,31.452,57.2,30.637Z" transform="translate(93.213 94)"/>
    <path id="Path_228" data-name="Path 228" class="cls-1" d="M32.958,41.293c1.631-3.261,3.669-6.522,5.707-9.783,3.261-5.3,6.522-10.191,10.191-15.49.408-.408.815-.408.408-1.223a8.3,8.3,0,0,0-2.446-2.853c-1.223-.815-1.631-1.223-2.853-.408-.815.408-1.631,1.223-2.446,1.631-8.968,6.93-17.936,14.267-26.5,22.012-2.038,2.038-4.484,3.669-6.522,5.707h.408c7.745.408,15.49.408,23.235.815C32.143,42.108,32.55,41.7,32.958,41.293Z" transform="translate(26.149 34.427)"/>
    <path id="Path_229" data-name="Path 229" class="cls-1" d="M135.568,5.346A81.233,81.233,0,0,0,115.594,2.9h-3.669a11.286,11.286,0,0,0-3.669.408,88.548,88.548,0,0,0-31.8,8.968,96.163,96.163,0,0,0-33.018,26.9C32.436,52.224,23.876,66.491,16.131,81.574a1.851,1.851,0,0,0,0,2.038,17.724,17.724,0,0,1,1.631,2.853c6.115,9.376,13.452,17.121,21.6,24.866a141.991,141.991,0,0,0,19.566,15.49,1.851,1.851,0,0,0,2.038,0c5.707-2.853,11.414-6.115,17.121-9.376,13.044-7.745,24.866-16.305,35.464-27.312,17.528-18.751,26.5-40.356,25.681-66.037a59.244,59.244,0,0,0-2.446-16.713C136.383,5.753,136.383,5.346,135.568,5.346ZM77.684,99.917a35.464,35.464,0,1,1,35.464-35.464A35.409,35.409,0,0,1,77.684,99.917Z" transform="translate(48.683 9.229)"/>
    <path id="Path_230" data-name="Path 230" class="cls-2" d="M50.9,11.708A25.325,25.325,0,0,0,24.808,36.981a25.683,25.683,0,1,0,51.362.408C75.762,23.122,64.349,11.708,50.9,11.708Z" transform="translate(76.285 36.293)"/>
    <path id="Path_231" data-name="Path 231" class="cls-3" d="M57.77,9.2A35.464,35.464,0,1,0,93.234,44.664,35.593,35.593,0,0,0,57.77,9.2Zm0,61.145A25.923,25.923,0,0,1,32.089,44.257,26.106,26.106,0,0,1,58.178,18.983,25.958,25.958,0,0,1,83.044,44.664,24.982,24.982,0,0,1,57.77,70.345Z" transform="translate(68.597 28.61)"/>
    <path id="Path_232" data-name="Path 232" class="cls-4" d="M57.77,9.2A35.464,35.464,0,1,0,93.234,44.664,35.593,35.593,0,0,0,57.77,9.2Zm0,61.145A25.923,25.923,0,0,1,32.089,44.257,26.106,26.106,0,0,1,58.178,18.983,25.958,25.958,0,0,1,83.044,44.664,24.982,24.982,0,0,1,57.77,70.345Z" transform="translate(68.597 28.61)"/>
    <path id="Path_233" data-name="Path 233" class="cls-3" d="M195.665,8.868a7.35,7.35,0,0,0-4.892-4.892A105.592,105.592,0,0,0,165.907-.1a114.554,114.554,0,0,0-11.821.408,108.485,108.485,0,0,0-19.974,4.076,129.01,129.01,0,0,0-20.382,8.968A111.5,111.5,0,0,0,94.164,28.027c-3.669,3.669-7.337,7.337-10.6,11.006a.764.764,0,0,1-1.223,0c-.408-.815-1.223-1.223-1.631-1.631A13.1,13.1,0,0,0,64,36.18,120.224,120.224,0,0,0,48.1,48.816c-3.669,3.261-7.337,6.115-11.414,9.376s-7.745,6.522-11.821,10.191c-2.853,2.446-6.115,5.3-8.968,7.745a5.991,5.991,0,0,0-2.038,5.707c.408,2.446,2.038,3.669,4.076,4.484a16.721,16.721,0,0,0,4.484.408c5.3,0,10.6.408,16.305.408,4.484,0,8.968,0,13.452.408h.408c.815,0,.815.408.408,1.223a5.2,5.2,0,0,0,0,4.892c.408.815.815,1.223.815,2.038.408.815.408,1.223-.408,1.631-2.446,2.038-4.484,4.484-6.93,6.522a6.618,6.618,0,0,0-2.038,3.669,7.773,7.773,0,0,0,.815,5.3c0,.408.408.815,0,1.223l-8.56,9.783c-4.076,4.484-8.153,9.376-12.229,13.86-4.484,5.3-9.376,10.6-13.86,15.9-.408.815-1.223,1.223-1.631,2.038a4.629,4.629,0,0,0-1.223,3.261,5.83,5.83,0,0,0,5.707,5.707h.408c.408.408.408.408,0,1.223-2.446,4.484-4.892,9.376-6.93,13.86h0L.815,191.9h0A5.794,5.794,0,0,0,0,194.342v.815H0c0,.408,0,.815.408.815.408,1.631,1.631,2.446,2.853,3.261h0c.408,0,.408.408.815.408H6.522c1.223,0,2.038-.815,3.261-1.223l14.675-8.56,29.757-17.121a5.32,5.32,0,0,0,5.3,4.892A6.546,6.546,0,0,0,64,175.591l24.05-19.159s6.93,3.261,13.86-9.783c.408-.408.815-.815,1.631-.408a3.114,3.114,0,0,0,2.038.815,6.047,6.047,0,0,0,5.3,0q1.223-.611,1.223,0h-1.223l2.038,33.426a5.462,5.462,0,0,0,3.261,5.3,5.537,5.537,0,0,0,6.522-.815,36.752,36.752,0,0,0,3.669-4.076c2.038-2.038,3.669-4.484,6.115-6.522v-.408l22.012-26.089h0a.4.4,0,0,0,.408-.408c.815-1.223,1.631-2.038,2.446-3.261h0c2.446-2.853,4.484-5.707,6.522-8.56a12.283,12.283,0,0,0,1.631-10.6,14.8,14.8,0,0,0-5.3-7.745.764.764,0,0,1,0-1.223,143.251,143.251,0,0,0,13.86-13.452,85.776,85.776,0,0,0,13.86-20.382A107.668,107.668,0,0,0,197.3,57.377a141.409,141.409,0,0,0,2.446-18.344c0-4.484,0-9.376-.408-13.86C198.111,19.466,197.3,14.167,195.665,8.868ZM34.241,75.72h0a43.632,43.632,0,0,1,6.522-5.707C49.324,62.676,58.292,54.931,67.26,48a8.528,8.528,0,0,1,2.446-1.631c1.223-.815,2.038-.815,2.853.408.815.815,1.631,2.038,2.446,2.853.408.408,0,.815-.408,1.223-3.669,4.892-6.93,10.191-10.191,15.49-2.038,3.261-3.669,6.522-5.707,9.783-.408.408-.408.815-1.223.815C50.139,76.128,41.986,76.128,34.241,75.72ZM74.6,149.094c-2.853,2.446-5.3,5.3-8.153,7.745-2.853,4.892-6.93,3.669-6.93,3.669l-3.261-1.631c-2.446,0-6.93,2.853-6.93,2.853-1.631.815-2.853,1.631-4.484,2.446l-15.9,8.968L24.458,176h0c-.408.408-.815.408-1.631.408a2.786,2.786,0,0,1-2.853-2.853,3.114,3.114,0,0,1,.815-2.038l7.745-11.006-1.223-2.853-.815-.815h0c-.408-.408-.815-.408-1.223-.815-.815,0-.815-.408-.408-.815,6.93-8.153,13.86-15.9,20.789-24.05,1.631-2.038,3.261-3.669,4.892-5.707.408-.408.815-.815,1.223,0a129.655,129.655,0,0,0,22.42,22.42C75,148.279,75,148.687,74.6,149.094Zm17.936-8.968-2.446,2.446c-.408.408-.815.815-1.631.408a48.367,48.367,0,0,1-9.376-6.522c-7.337-6.522-14.267-13.044-19.974-21.2-.815-1.223-1.631-2.853-2.446-4.076,0-.408-.408-.408,0-.815l3.261-3.261a.4.4,0,0,0,.408-.408.4.4,0,0,0,.408.408A182.294,182.294,0,0,0,85.2,132.789c2.446,2.038,4.484,4.076,7.337,5.707C92.941,139.311,92.941,139.719,92.533,140.126Zm61.145-10.191a22.4,22.4,0,0,1-2.853,3.669l-26.089,32.2L123.513,149.5v-7.337a1.5,1.5,0,0,1,.408-1.223,264.531,264.531,0,0,0,25.273-15.9.764.764,0,0,1,1.223,0,17.012,17.012,0,0,1,3.261,2.446A1.784,1.784,0,0,1,153.678,129.936Zm8.56-31.388c-10.191,11.006-22.42,19.566-35.464,27.312-5.707,3.261-11.414,6.522-17.121,9.376a1.851,1.851,0,0,1-2.038,0c-7.337-4.484-13.452-9.783-19.566-15.49a126.326,126.326,0,0,1-21.6-24.866,17.723,17.723,0,0,1-1.631-2.853,1.851,1.851,0,0,1,0-2.038A203.2,203.2,0,0,1,92.125,47.593c9.376-11.006,19.974-20.382,33.018-26.9a88.548,88.548,0,0,1,31.8-8.968,11.286,11.286,0,0,0,3.669-.408h3.669a81.233,81.233,0,0,1,19.974,2.446,1.081,1.081,0,0,1,1.223,1.223A110,110,0,0,1,187.92,31.7C188.327,58.192,179.359,79.8,162.239,98.548Z"/>
    <path id="Path_234" data-name="Path 234" class="cls-4" d="M195.665,8.868a7.35,7.35,0,0,0-4.892-4.892A105.592,105.592,0,0,0,165.907-.1a114.554,114.554,0,0,0-11.821.408,108.485,108.485,0,0,0-19.974,4.076,129.01,129.01,0,0,0-20.382,8.968A111.5,111.5,0,0,0,94.164,28.027c-3.669,3.669-7.337,7.337-10.6,11.006a.764.764,0,0,1-1.223,0c-.408-.815-1.223-1.223-1.631-1.631A13.1,13.1,0,0,0,64,36.18,120.224,120.224,0,0,0,48.1,48.816c-3.669,3.261-7.337,6.115-11.414,9.376s-7.745,6.522-11.821,10.191c-2.853,2.446-6.115,5.3-8.968,7.745a5.991,5.991,0,0,0-2.038,5.707c.408,2.446,2.038,3.669,4.076,4.484a16.721,16.721,0,0,0,4.484.408c5.3,0,10.6.408,16.305.408,4.484,0,8.968,0,13.452.408h.408c.815,0,.815.408.408,1.223a5.2,5.2,0,0,0,0,4.892c.408.815.815,1.223.815,2.038.408.815.408,1.223-.408,1.631-2.446,2.038-4.484,4.484-6.93,6.522a6.618,6.618,0,0,0-2.038,3.669,7.773,7.773,0,0,0,.815,5.3c0,.408.408.815,0,1.223l-8.56,9.783c-4.076,4.484-8.153,9.376-12.229,13.86-4.484,5.3-9.376,10.6-13.86,15.9-.408.815-1.223,1.223-1.631,2.038a4.629,4.629,0,0,0-1.223,3.261,5.83,5.83,0,0,0,5.707,5.707h.408c.408.408.408.408,0,1.223-2.446,4.484-4.892,9.376-6.93,13.86h0L.815,191.9h0A5.794,5.794,0,0,0,0,194.342v.815H0c0,.408,0,.815.408.815.408,1.631,1.631,2.446,2.853,3.261h0c.408,0,.408.408.815.408H6.522c1.223,0,2.038-.815,3.261-1.223l14.675-8.56,29.757-17.121a5.32,5.32,0,0,0,5.3,4.892A6.546,6.546,0,0,0,64,175.591l24.05-19.159s6.93,3.261,13.86-9.783c.408-.408.815-.815,1.631-.408a3.114,3.114,0,0,0,2.038.815,6.047,6.047,0,0,0,5.3,0q1.223-.611,1.223,0h-1.223l2.038,33.426a5.462,5.462,0,0,0,3.261,5.3,5.537,5.537,0,0,0,6.522-.815,36.752,36.752,0,0,0,3.669-4.076c2.038-2.038,3.669-4.484,6.115-6.522v-.408l22.012-26.089h0a.4.4,0,0,0,.408-.408c.815-1.223,1.631-2.038,2.446-3.261h0c2.446-2.853,4.484-5.707,6.522-8.56a12.283,12.283,0,0,0,1.631-10.6,14.8,14.8,0,0,0-5.3-7.745.764.764,0,0,1,0-1.223,143.251,143.251,0,0,0,13.86-13.452,85.776,85.776,0,0,0,13.86-20.382A107.668,107.668,0,0,0,197.3,57.377a141.409,141.409,0,0,0,2.446-18.344c0-4.484,0-9.376-.408-13.86C198.111,19.466,197.3,14.167,195.665,8.868ZM34.241,75.72h0a43.632,43.632,0,0,1,6.522-5.707C49.324,62.676,58.292,54.931,67.26,48a8.528,8.528,0,0,1,2.446-1.631c1.223-.815,2.038-.815,2.853.408.815.815,1.631,2.038,2.446,2.853.408.408,0,.815-.408,1.223-3.669,4.892-6.93,10.191-10.191,15.49-2.038,3.261-3.669,6.522-5.707,9.783-.408.408-.408.815-1.223.815C50.139,76.128,41.986,76.128,34.241,75.72ZM74.6,149.094c-2.853,2.446-5.3,5.3-8.153,7.745-2.853,4.892-6.93,3.669-6.93,3.669l-3.261-1.631c-2.446,0-6.93,2.853-6.93,2.853-1.631.815-2.853,1.631-4.484,2.446l-15.9,8.968L24.458,176h0c-.408.408-.815.408-1.631.408a2.786,2.786,0,0,1-2.853-2.853,3.114,3.114,0,0,1,.815-2.038l7.745-11.006-1.223-2.853-.815-.815h0c-.408-.408-.815-.408-1.223-.815-.815,0-.815-.408-.408-.815,6.93-8.153,13.86-15.9,20.789-24.05,1.631-2.038,3.261-3.669,4.892-5.707.408-.408.815-.815,1.223,0a129.655,129.655,0,0,0,22.42,22.42C75,148.279,75,148.687,74.6,149.094Zm17.936-8.968-2.446,2.446c-.408.408-.815.815-1.631.408a48.367,48.367,0,0,1-9.376-6.522c-7.337-6.522-14.267-13.044-19.974-21.2-.815-1.223-1.631-2.853-2.446-4.076,0-.408-.408-.408,0-.815l3.261-3.261a.4.4,0,0,0,.408-.408.4.4,0,0,0,.408.408A182.294,182.294,0,0,0,85.2,132.789c2.446,2.038,4.484,4.076,7.337,5.707C92.941,139.311,92.941,139.719,92.533,140.126Zm61.145-10.191a22.4,22.4,0,0,1-2.853,3.669l-26.089,32.2L123.513,149.5v-7.337a1.5,1.5,0,0,1,.408-1.223,264.531,264.531,0,0,0,25.273-15.9.764.764,0,0,1,1.223,0,17.012,17.012,0,0,1,3.261,2.446A1.784,1.784,0,0,1,153.678,129.936Zm8.56-31.388c-10.191,11.006-22.42,19.566-35.464,27.312-5.707,3.261-11.414,6.522-17.121,9.376a1.851,1.851,0,0,1-2.038,0c-7.337-4.484-13.452-9.783-19.566-15.49a126.326,126.326,0,0,1-21.6-24.866,17.723,17.723,0,0,1-1.631-2.853,1.851,1.851,0,0,1,0-2.038A203.2,203.2,0,0,1,92.125,47.593c9.376-11.006,19.974-20.382,33.018-26.9a88.548,88.548,0,0,1,31.8-8.968,11.286,11.286,0,0,0,3.669-.408h3.669a81.233,81.233,0,0,1,19.974,2.446,1.081,1.081,0,0,1,1.223,1.223A110,110,0,0,1,187.92,31.7C188.327,58.192,179.359,79.8,162.239,98.548Z"/>
  </g>
</svg>
