<svg xmlns="http://www.w3.org/2000/svg" viewBox="3176.543 2129.16 151.486 226.916">
  <defs>
    <style>
      .cls-1 {
        fill: #e84710;
      }

      .cls-2 {
        fill: #2c398c;
      }

      .cls-3 {
        fill: #fff;
      }
    </style>
  </defs>
  <g id="profissao_do_agora" transform="translate(3176.543 2129.16)">
    <path id="Path_118" data-name="Path 118" class="cls-1" d="M64.292,18.22H64.6c.313,0,.625,0,.625.625a49.366,49.366,0,0,0,2.813,13.127.306.306,0,0,0,.313.313,38.9,38.9,0,0,0,3.126,6.251,4.594,4.594,0,0,0,1.563,1.875c.313.625.938.938,1.25,1.25h0a17.337,17.337,0,0,0,2.5,1.875c.313,0,.313.313.313.625a44.354,44.354,0,0,1-1.563,6.876c0,.625-.313.938-.313,1.563-.313.938-.625,1.563-.938,2.5-.313.625-.313.938-.625,1.563-.313.938-.625,1.563-.938,2.5a18.557,18.557,0,0,1-1.25,2.5c-.313.938-.938,1.563-1.25,2.5A41.584,41.584,0,0,1,65.855,70.1,25.782,25.782,0,0,1,51.79,78.856,25.413,25.413,0,0,1,30.224,74.48c-4.063-2.813-6.876-6.564-9.377-10.627,0-.313-.313-.313-.313-.625a1.091,1.091,0,0,0-.313-.625,7.834,7.834,0,0,0-1.25-2.188l-.938-1.875c-.313-1.25-.938-2.188-1.25-3.438s-.938-2.813-1.25-4.063c0-.625-.313-1.25-.313-1.875-.313-1.563-.625-3.126-.938-5a1.142,1.142,0,0,1,.625-1.563h0a14.8,14.8,0,0,0,4.063-3.438,36.283,36.283,0,0,0,4.063-6.876,58.324,58.324,0,0,0,2.188-6.876,21.658,21.658,0,0,0,.938-6.251v-.313a1.879,1.879,0,0,1,.313-1.25c.313-.313.625,0,1.25,0a38.3,38.3,0,0,0,5.939.625c4.688.313,9.064.625,13.752.625,3.438,0,7.189-.313,10.627-.625a2.818,2.818,0,0,0,1.563-.313c1.25,0,2.188-.313,3.438-.313C63.355,18.532,63.98,18.22,64.292,18.22Z" transform="translate(30.204 37.415)"/>
    <path id="Path_119" data-name="Path 119" class="cls-2" d="M123.9,68.975a7.224,7.224,0,0,0-.313-11.252c-.313-.313-.313-.313,0-.625a7.94,7.94,0,0,0,2.813-7.189,7.325,7.325,0,0,0-6.564-5.626c-.625,0-.625,0-.313-.625a7.929,7.929,0,0,0,.625-3.751,7.293,7.293,0,0,0-5.939-6.251c-.313,0-1.25,0-1.25-.313-.313-.313.313-.938.625-1.25a7.374,7.374,0,0,0-4.376-10,8.041,8.041,0,0,0-4.688.313v-.625a4.337,4.337,0,0,0,0-2.813A7.288,7.288,0,0,0,96.4,13.027c-.313,0-.625,0-.625-.313a7.438,7.438,0,0,0-7.189-6.876,8.322,8.322,0,0,0-3.751.938c-.313.313-.625.313-.625-.313a6.569,6.569,0,0,0-2.188-3.438,7.079,7.079,0,0,0-9.064,0c-.625.625-.938,1.25-1.563,1.875-1.25-3.126-3.438-5-6.876-5s-5.626,1.875-6.876,5.313h0a.306.306,0,0,0-.313-.313,7.231,7.231,0,0,0-7.189-3.126,7.1,7.1,0,0,0-5.626,5c0,.313-.313.625-.625.313A7.857,7.857,0,0,0,39.2,6.464a7.513,7.513,0,0,0-5.939,5,5.326,5.326,0,0,0,0,3.126c0,.313,0,.625-.313.313H31.7a7.169,7.169,0,0,0-6.876,7.814c0,.313,0,.625-.313.625H22.632a7.085,7.085,0,0,0-5.626,8.752c.313.625.313.625-.625.938a5.8,5.8,0,0,0-3.751,2.188c-2.5,2.5-2.813,5.626-.938,8.752.313.313.313.625-.313.625a6.485,6.485,0,0,0-3.126,1.875,7.088,7.088,0,0,0-.625,8.752c.313.313.313.625,0,.625a6.948,6.948,0,0,0-2.5,4.063,6.576,6.576,0,0,0,2.5,6.876,6.282,6.282,0,0,0,2.5,1.25l-.313.313a7.187,7.187,0,0,0,.938,12.19c.625.313.625.625.313.938a7.24,7.24,0,0,0,5.939,10c.625-.313.625,0,.625.625a6.613,6.613,0,0,0,2.813,6.564,6.332,6.332,0,0,0,4.688,1.25c.938,0,.938,0,.938.625a6.89,6.89,0,0,0,9.064,5.939l1.875-.938c.313,1.25.938,1.875,2.188,1.563a1.981,1.981,0,0,0,1.563-1.875q0-1.407-1.875-1.875c0-.313,0-.313.313-.625a5.041,5.041,0,0,0,.938-2.813,1.091,1.091,0,0,0-.313-.625,7.834,7.834,0,0,0-1.25-2.188l-.938-1.875c-.313-1.25-.938-2.188-1.25-3.438s-.938-2.813-1.25-4.063c0-.625-.313-1.25-.313-1.875-.313-1.563-.625-3.126-.938-5a1.142,1.142,0,0,1,.625-1.563h0a14.8,14.8,0,0,0,4.063-3.438,36.284,36.284,0,0,0,4.063-6.876h0A58.328,58.328,0,0,0,44.824,62.1a21.658,21.658,0,0,0,.938-6.251v-.313a1.879,1.879,0,0,1,.313-1.25c.313-.313.625,0,1.25,0a38.3,38.3,0,0,0,5.939.625c4.688.313,9.064.625,13.752.625,3.438,0,7.189-.313,10.627-.625a2.818,2.818,0,0,0,1.563-.313c1.25,0,2.188-.313,3.438-.313a2.818,2.818,0,0,0,1.563-.313h.313c.313,0,.625,0,.625.625a49.366,49.366,0,0,0,2.813,13.127.306.306,0,0,0,.313.313,38.9,38.9,0,0,0,3.126,6.251,4.594,4.594,0,0,0,1.563,1.875c.313.625.938.938,1.25,1.25h0a17.336,17.336,0,0,0,2.5,1.875c.313,0,.313.313.313.625a44.353,44.353,0,0,1-1.563,6.876c0,.625-.313.938-.313,1.563-.313.938-.625,1.563-.938,2.5-.313.625-.313.938-.625,1.563-.313.938-.625,1.563-.938,2.5a18.559,18.559,0,0,1-1.25,2.5c-.313.938-.938,1.563-1.25,2.5v1.25a7.26,7.26,0,0,0,4.688,5.626,6.931,6.931,0,0,0,7.189-1.563,6.536,6.536,0,0,0,2.188-4.063c0-.625,0-.625.938-.313a8.654,8.654,0,0,0,2.813.313c4.688,0,8.126-4.688,6.564-9.689l-.938-1.875h.625a5.106,5.106,0,0,0,2.188,0c4.688-.938,6.876-6.251,4.688-10.627-.313-.313-.313-.625.313-.938a8.287,8.287,0,0,0,1.875-1.563,7.027,7.027,0,0,0,.625-8.752C123.276,69.288,123.588,68.975,123.9,68.975Z" transform="translate(10.603 0.1)"/>
    <path id="Path_120" data-name="Path 120" class="cls-1" d="M18.625,48.19c.313.313,4.688,10,19.066,10.939C52.381,58.192,56.444,48.5,56.757,48.19l.313-.938h.313a19.626,19.626,0,0,1-2.188-10.939c-.313,0-.313.313-.625.313a25.673,25.673,0,0,1-7.814,5,28.283,28.283,0,0,1-13.44,1.25,24.759,24.759,0,0,1-12.19-5L19.25,36c.625,4.063.938,7.814-1.25,10.939h.313Z" transform="translate(38.364 76.833)"/>
    <path id="Path_121" data-name="Path 121" class="cls-3" d="M85.627,40.239h0S80.939,51.491,64.686,52.116c-15.94-.938-20.629-11.877-20.629-11.877h-.313C8.738,37.426,5.3,64.618,5.3,64.618H124.071S120.633,37.426,85.627,40.239Z" transform="translate(11.37 85.409)"/>
    <path id="Path_122" data-name="Path 122" class="cls-1" d="M128.219,112.687H22.575A9.665,9.665,0,0,1,13.2,105.5L.383,60.8A9.721,9.721,0,0,1,9.76,48.3h131.9a9.721,9.721,0,0,1,9.377,12.5L137.6,105.81A9.754,9.754,0,0,1,128.219,112.687Z" transform="translate(0.033 102.977)"/>
    <path id="Path_123" data-name="Path 123" class="cls-1" d="M125.572,77.176H7.738A3.469,3.469,0,0,1,4.3,73.738h0A3.469,3.469,0,0,1,7.738,70.3H125.572a3.469,3.469,0,0,1,3.438,3.438h0A3.469,3.469,0,0,1,125.572,77.176Z" transform="translate(9.244 149.74)"/>
    <g id="Group_24" data-name="Group 24" transform="translate(55.114 177.532)">
      <g id="Group_23" data-name="Group 23">
        <path id="Path_124" data-name="Path 124" class="cls-3" d="M17.6,66.889V63.764L27.914,57.2v4.063l-6.564,4.063h0l6.564,4.063v4.063Z" transform="translate(-17.6 -55.637)"/>
        <path id="Path_125" data-name="Path 125" class="cls-3" d="M30.952,56.7H34.7L25.951,79.517H22.2Z" transform="translate(-7.822 -56.7)"/>
        <path id="Path_126" data-name="Path 126" class="cls-3" d="M27.6,69.49l6.564-4.063h0L27.6,61.363V57.3l10.314,6.564v3.126L27.6,73.553Z" transform="translate(3.656 -55.425)"/>
      </g>
    </g>
  </g>
</svg>
