<svg xmlns="http://www.w3.org/2000/svg" viewBox="2310.476 2464 126.447 221.668">
  <defs>
    <style>
      .cls-1 {
        fill: #e84710;
      }

      .cls-2 {
        fill: #2e3192;
      }

      .cls-3 {
        fill: #fcaf17;
      }
    </style>
  </defs>
  <g id="trabalhe_em_qualquer_lugar" transform="translate(2310.476 2464)">
    <g id="Group_28" data-name="Group 28" transform="translate(0 0)">
      <path id="Path_127" data-name="Path 127" class="cls-1" d="M120.122,60.368A59.561,59.561,0,1,0,12.18,95.064l45.1,80.572c1.157,2.313,5.4,2.313,6.939,0l44.719-80.572A59.163,59.163,0,0,0,120.122,60.368Z" transform="translate(2.855 2.855)"/>
      <path id="Path_128" data-name="Path 128" class="cls-1" d="M63.224,184.274a8.1,8.1,0,0,1-6.939-3.855L11.565,100.232A62.6,62.6,0,0,1,0,63.609C0,28.528,28.528,0,63.224,0a63.509,63.509,0,0,1,63.224,63.224,65.45,65.45,0,0,1-11.565,36.623L70.163,180.418A7.638,7.638,0,0,1,63.224,184.274Zm0-176.563A55.777,55.777,0,0,0,7.71,63.224,54.94,54.94,0,0,0,18.119,95.606l.386.386,45.1,80.571a.378.378,0,0,0,.386-.385l45.1-80.957a54.94,54.94,0,0,0,10.409-32.383,55.667,55.667,0,0,0-2.171-14.559C110.956,25.391,89.13,7.71,63.224,7.71Z" transform="translate(0 0)"/>
    </g>
    <ellipse id="Ellipse_1" data-name="Ellipse 1" class="cls-2" cx="63.224" cy="4.241" rx="63.224" ry="4.241" transform="translate(0 213.187)"/>
    <g id="Group_29" data-name="Group 29" transform="translate(31.997 29.684)">
      <ellipse id="Ellipse_2" data-name="Ellipse 2" class="cls-2" cx="27.371" cy="27.371" rx="27.371" ry="27.371" transform="translate(3.855 3.855)"/>
      <path id="Path_129" data-name="Path 129" class="cls-3" d="M39.526,70.153A31.226,31.226,0,1,1,70.753,38.926,31.343,31.343,0,0,1,39.526,70.153Zm0-54.357A23.61,23.61,0,0,0,16.01,39.312,23.516,23.516,0,1,0,39.526,15.8Z" transform="translate(-8.3 -7.7)"/>
    </g>
  </g>
</svg>
